<svg viewBox="0 0 24 24" xmlns="http://www.w3.org/2000/svg" fill="currentColor">
  <g>
    <circle cx="12" cy="12" r="10" fill="currentColor" opacity="0.15"/>
    <path d="M15.03 13.89c-.26-.37-.51-.72-.76-1.06c-.96-1.33-1.92-2.66-2.88-3.98c-.61-.84-1.22-1.68-1.84-2.52c-.19-.25-.21-.51-.12-.8.17-.59.59-1 1.08-1.34.9-.62 1.91-.94 2.97-1.12.92-.16 1.84-.36 2.64-.87.22-.14.4-.33.6-.49.05-.04.1-.09.2-.18.07.33.13.6.18.87.13.8.08 1.58-.28 2.32-.49 1-.29 1.62-2.34 1.94-.64.2-1.31.25-1.98.25-.05 0-.1.01-.18.02.16.29.31.56.47.83.65 1.06 1.29 2.11 1.94 3.17l2.11 3.51c.18.3.37.61.55.91.41.71.72 1.46.66 2.31-.06.84-.36 1.57-.88 2.21-.85 1.05-1.96 1.65-3.28 1.89-1.24.22-2.43.08-3.53-.55-1.24-.7-2.03-1.98-1.84-3.51.12-1 .62-1.83 1.36-2.51.78-.72 1.72-1.16 2.76-1.36.77-.15 1.54-.14 2.29.06.03 0 .06-.01.09-.01z"/>
  </g>
</svg>
